<svg xmlns="http://www.w3.org/2000/svg" version="1.1" xmlns:xlink="http://www.w3.org/1999/xlink" xmlns:svgjs="http://svgjs.dev/svgjs" viewBox="0 0 800 800"><defs><linearGradient x1="50%" y1="0%" x2="50%" y2="100%" id="ffflurry-grad" gradientTransform="rotate(270)"><stop stop-color="#6366f1" stop-opacity="1" offset="0%"></stop><stop stop-color="hsl(162, 100%, 58%)" stop-opacity="1" offset="45%"></stop><stop stop-color="hsl(270, 73%, 53%)" stop-opacity="1" offset="100%"></stop></linearGradient></defs><rect width="100%" height="100%" fill="#6366f1"></rect><g fill="url(#ffflurry-grad)"><rect width="75" height="3" x="511.5" y="38.5" rx="1.5" transform="rotate(45, 549, 40)" opacity="0.45"></rect><rect width="232" height="3" x="324" y="559.5" rx="1.5" transform="rotate(45, 440, 561)" opacity="0.99"></rect><rect width="374" height="3" x="106" y="232.5" rx="1.5" transform="rotate(45, 293, 234)" opacity="0.97"></rect><rect width="196" height="3" x="311" y="229.5" rx="1.5" transform="rotate(45, 409, 231)" opacity="0.47"></rect><rect width="462" height="3" x="135" y="587.5" rx="1.5" transform="rotate(45, 366, 589)" opacity="0.86"></rect><rect width="279" height="3" x="110.5" y="114.5" rx="1.5" transform="rotate(45, 250, 116)" opacity="0.22"></rect><rect width="36" height="3" x="449" y="762.5" rx="1.5" transform="rotate(45, 467, 764)" opacity="0.30"></rect><rect width="157" height="3" x="469.5" y="461.5" rx="1.5" transform="rotate(45, 548, 463)" opacity="0.66"></rect><rect width="372" height="3" x="522" y="388.5" rx="1.5" transform="rotate(45, 708, 390)" opacity="0.83"></rect><rect width="278" height="3" x="210" y="151.5" rx="1.5" transform="rotate(45, 349, 153)" opacity="0.38"></rect><rect width="182" height="3" x="617" y="504.5" rx="1.5" transform="rotate(45, 708, 506)" opacity="0.27"></rect><rect width="443" height="3" x="-123.5" y="534.5" rx="1.5" transform="rotate(45, 98, 536)" opacity="0.82"></rect><rect width="290" height="3" x="607" y="744.5" rx="1.5" transform="rotate(45, 752, 746)" opacity="0.61"></rect><rect width="571" height="3" x="-253.5" y="489.5" rx="1.5" transform="rotate(45, 32, 491)" opacity="0.97"></rect><rect width="99" height="3" x="411.5" y="348.5" rx="1.5" transform="rotate(45, 461, 350)" opacity="0.15"></rect><rect width="371" height="3" x="447.5" y="527.5" rx="1.5" transform="rotate(45, 633, 529)" opacity="0.07"></rect><rect width="184" height="3" x="208" y="32.5" rx="1.5" transform="rotate(45, 300, 34)" opacity="0.21"></rect><rect width="445" height="3" x="99.5" y="490.5" rx="1.5" transform="rotate(45, 322, 492)" opacity="0.74"></rect><rect width="210" height="3" x="614" y="226.5" rx="1.5" transform="rotate(45, 719, 228)" opacity="0.41"></rect><rect width="228" height="3" x="-69" y="158.5" rx="1.5" transform="rotate(45, 45, 160)" opacity="0.76"></rect><rect width="385" height="3" x="7.5" y="473.5" rx="1.5" transform="rotate(45, 200, 475)" opacity="0.13"></rect><rect width="121" height="3" x="552.5" y="771.5" rx="1.5" transform="rotate(45, 613, 773)" opacity="0.95"></rect><rect width="610" height="3" x="227" y="265.5" rx="1.5" transform="rotate(45, 532, 267)" opacity="0.63"></rect><rect width="88" height="3" x="420" y="641.5" rx="1.5" transform="rotate(45, 464, 643)" opacity="0.71"></rect><rect width="399" height="3" x="217.5" y="501.5" rx="1.5" transform="rotate(45, 417, 503)" opacity="0.99"></rect><rect width="533" height="3" x="-182.5" y="314.5" rx="1.5" transform="rotate(45, 84, 316)" opacity="0.82"></rect><rect width="276" height="3" x="626" y="572.5" rx="1.5" transform="rotate(45, 764, 574)" opacity="0.58"></rect><rect width="436" height="3" x="-19" y="263.5" rx="1.5" transform="rotate(45, 199, 265)" opacity="0.98"></rect><rect width="460" height="3" x="282" y="148.5" rx="1.5" transform="rotate(45, 512, 150)" opacity="0.78"></rect><rect width="372" height="3" x="194" y="370.5" rx="1.5" transform="rotate(45, 380, 372)" opacity="0.77"></rect><rect width="343" height="3" x="90.5" y="687.5" rx="1.5" transform="rotate(45, 262, 689)" opacity="0.22"></rect><rect width="185" height="3" x="-24.5" y="710.5" rx="1.5" transform="rotate(45, 68, 712)" opacity="0.58"></rect><rect width="113" height="3" x="404.5" y="53.5" rx="1.5" transform="rotate(45, 461, 55)" opacity="0.25"></rect><rect width="256" height="3" x="415" y="563.5" rx="1.5" transform="rotate(45, 543, 565)" opacity="0.84"></rect><rect width="383" height="3" x="262.5" y="449.5" rx="1.5" transform="rotate(45, 454, 451)" opacity="0.71"></rect><rect width="233" height="3" x="541.5" y="270.5" rx="1.5" transform="rotate(45, 658, 272)" opacity="0.66"></rect><rect width="60" height="3" x="644" y="28.5" rx="1.5" transform="rotate(45, 674, 30)" opacity="0.84"></rect><rect width="542" height="3" x="97" y="675.5" rx="1.5" transform="rotate(45, 368, 677)" opacity="0.63"></rect><rect width="873" height="3" x="-276.5" y="608.5" rx="1.5" transform="rotate(45, 160, 610)" opacity="0.41"></rect><rect width="484" height="3" x="-130" y="392.5" rx="1.5" transform="rotate(45, 112, 394)" opacity="0.86"></rect><rect width="408" height="3" x="-172" y="77.5" rx="1.5" transform="rotate(45, 32, 79)" opacity="0.11"></rect><rect width="290" height="3" x="619" y="432.5" rx="1.5" transform="rotate(45, 764, 434)" opacity="0.16"></rect><rect width="124" height="3" x="695" y="54.5" rx="1.5" transform="rotate(45, 757, 56)" opacity="0.72"></rect><rect width="55" height="3" x="13.5" y="252.5" rx="1.5" transform="rotate(45, 41, 254)" opacity="0.60"></rect><rect width="378" height="3" x="164" y="760.5" rx="1.5" transform="rotate(45, 353, 762)" opacity="0.54"></rect><rect width="544" height="3" x="489" y="643.5" rx="1.5" transform="rotate(45, 761, 645)" opacity="0.95"></rect><rect width="246" height="3" x="-62" y="23.5" rx="1.5" transform="rotate(45, 61, 25)" opacity="0.76"></rect><rect width="236" height="3" x="466" y="113.5" rx="1.5" transform="rotate(45, 584, 115)" opacity="0.88"></rect><rect width="415" height="3" x="394.5" y="455.5" rx="1.5" transform="rotate(45, 602, 457)" opacity="0.48"></rect><rect width="580" height="3" x="391" y="135.5" rx="1.5" transform="rotate(45, 681, 137)" opacity="0.93"></rect><rect width="234" height="3" x="653" y="506.5" rx="1.5" transform="rotate(45, 770, 508)" opacity="0.60"></rect><rect width="150" height="3" x="524" y="192.5" rx="1.5" transform="rotate(45, 599, 194)" opacity="0.34"></rect><rect width="508" height="3" x="438" y="664.5" rx="1.5" transform="rotate(45, 692, 666)" opacity="0.14"></rect><rect width="211" height="3" x="418.5" y="715.5" rx="1.5" transform="rotate(45, 524, 717)" opacity="0.83"></rect><rect width="39" height="3" x="91.5" y="95.5" rx="1.5" transform="rotate(45, 111, 97)" opacity="0.30"></rect><rect width="169" height="3" x="364.5" y="172.5" rx="1.5" transform="rotate(45, 449, 174)" opacity="0.81"></rect><rect width="798" height="3" x="-131" y="575.5" rx="1.5" transform="rotate(45, 268, 577)" opacity="0.09"></rect><rect width="286" height="3" x="247" y="295.5" rx="1.5" transform="rotate(45, 390, 297)" opacity="0.66"></rect><rect width="119" height="3" x="143.5" y="754.5" rx="1.5" transform="rotate(45, 203, 756)" opacity="0.68"></rect><rect width="460" height="3" x="528" y="317.5" rx="1.5" transform="rotate(45, 758, 319)" opacity="0.87"></rect><rect width="32" height="3" x="616" y="68.5" rx="1.5" transform="rotate(45, 632, 70)" opacity="0.76"></rect><rect width="219" height="3" x="390.5" y="494.5" rx="1.5" transform="rotate(45, 500, 496)" opacity="0.91"></rect><rect width="153" height="3" x="688.5" y="164.5" rx="1.5" transform="rotate(45, 765, 166)" opacity="0.43"></rect><rect width="94" height="3" x="335" y="62.5" rx="1.5" transform="rotate(45, 382, 64)" opacity="0.41"></rect><rect width="173" height="3" x="481.5" y="640.5" rx="1.5" transform="rotate(45, 568, 642)" opacity="0.69"></rect><rect width="59" height="3" x="388.5" y="421.5" rx="1.5" transform="rotate(45, 418, 423)" opacity="0.10"></rect><rect width="471" height="3" x="-58.5" y="41.5" rx="1.5" transform="rotate(45, 177, 43)" opacity="0.81"></rect><rect width="139" height="3" x="559.5" y="635.5" rx="1.5" transform="rotate(45, 629, 637)" opacity="0.56"></rect><rect width="206" height="3" x="224" y="414.5" rx="1.5" transform="rotate(45, 327, 416)" opacity="0.67"></rect><rect width="195" height="3" x="193.5" y="337.5" rx="1.5" transform="rotate(45, 291, 339)" opacity="0.26"></rect><rect width="432" height="3" x="409" y="339.5" rx="1.5" transform="rotate(45, 625, 341)" opacity="0.32"></rect><rect width="524" height="3" x="-110" y="175.5" rx="1.5" transform="rotate(45, 152, 177)" opacity="0.68"></rect><rect width="297" height="3" x="506.5" y="430.5" rx="1.5" transform="rotate(45, 655, 432)" opacity="0.31"></rect><rect width="430" height="3" x="438" y="726.5" rx="1.5" transform="rotate(45, 653, 728)" opacity="0.63"></rect><rect width="374" height="3" x="37" y="383.5" rx="1.5" transform="rotate(45, 224, 385)" opacity="0.82"></rect><rect width="167" height="3"  x="602.5" y="582.5" rx="1.5" transform="rotate(45, 686, 584)" opacity="0.73"></rect><rect width="92" height="3" x="494" y="371.5" rx="1.5" transform="rotate(45, 540, 373)" opacity="0.84"></rect></g></svg>